<?xml version="1.0" encoding="UTF-8"?>
<svg id="Alliance" data-name="Alliance" xmlns="http://www.w3.org/2000/svg"
  viewBox="0 0 1854.12 2200">
  <g id="Stars">
    <path id="C_Star" data-name="C Star"
      d="m838.47,1372.76c29.52-75.32,59.05-150.68,88.58-226.03.39-.04.78-.08,1.17-.12,14.96,37.56,29.55,75.26,44.34,112.89,14.85,37.76,29.6,75.55,44.59,113.82h228.52c.17.42.34.83.51,1.25-31.03,24.22-62.21,48.26-93.31,72.39-31.06,24.09-62.14,48.17-93.41,72.42,19.39,75.52,38.73,150.82,58.06,226.13-.35.23-.69.47-1.04.7-62.82-45.31-125.63-90.61-188.77-136.15-62.99,45.44-125.83,90.76-188.67,136.09-.34-.17-.68-.34-1.02-.51,6.07-25.09,12.78-50.03,19.11-75.05,6.34-25.03,12.84-50.03,19.27-75.04,6.47-25.18,12.94-50.35,19.57-76.16-62.2-48.22-124.43-96.46-186.55-144.62.22-.61.25-.8.35-.94.09-.13.24-.26.39-.29.36-.08.73-.12,1.09-.14.74-.02,1.48-.02,2.22-.02,74.24-.01,148.48-.02,222.72-.04.36,0,.73-.08,1.09-.15.18-.03.34-.12,1.2-.44Z" />
    <path id="R_Star" data-name="R Star"
      d="m1321.26,2069.9c-39.43,28.43-78.32,56.47-117.21,84.52l-1.04-.56c11.98-46.7,23.97-93.39,36.07-140.53-38.57-29.91-77.14-59.82-115.7-89.73l.41-1.08h141.52c18.54-47.25,36.96-94.21,55.38-141.17.39,0,.78-.01,1.16-.02,18.34,46.77,36.68,93.54,55.25,140.91h141.47c.15.38.31.76.46,1.14-1.28,1.11-2.51,2.27-3.85,3.31-35.46,27.5-70.92,55-106.39,82.49-.58.45-1.13.97-1.77,1.33-3.13,1.76-3.33,4.21-2.46,7.5,4.9,18.55,9.61,37.15,14.38,55.74,6.6,25.73,13.19,51.46,19.78,77.2.26,1.03.41,2.08.84,4.25-39.9-28.76-78.93-56.91-118.3-85.29Z" />
    <path id="L_Star" data-name="L Star"
      d="m451.94,2013.31c-38.83-30.11-77.18-59.84-115.4-89.48.16-.56.17-.73.25-.86.1-.15.24-.32.39-.37.35-.1.72-.16,1.08-.19.37-.04.74-.04,1.11-.04,45.62-.02,91.24-.04,136.87-.07.36,0,.73-.11,1.09-.19.18-.04.34-.14,1.24-.52,18.16-46.33,36.53-93.18,54.88-139.97.39,0,.57-.02.73,0,.17.03.43.07.47.18,18.43,46.65,36.85,93.32,55.51,140.58h141.47l.41,1.21c-38.43,29.81-76.87,59.61-115.69,89.72,12.02,46.89,24.04,93.75,36.05,140.6-.33.18-.66.37-.99.55-38.9-28.05-77.8-56.1-117.26-84.55-39.12,28.2-78.27,56.42-117.42,84.65-.29-.2-.58-.4-.87-.6,11.99-46.75,23.99-93.5,36.08-140.64Z" />
  </g>
  <g
    id="Wings">
    <path id="R_Wing" data-name="R Wing"
      d="m1667.93,2200c-1.17-4.06-2.21-8.15-3.53-12.16-40.09-122.02-83.42-242.86-131.21-362.08-37.49-93.54-77.56-185.95-120.91-276.93-58.64-123.07-122.9-243.08-195.35-358.63-54.99-87.69-114.25-172.36-180.29-252.12-22.95-27.72-47.11-54.44-70.9-81.45-3.01-3.42-4.42-6.65-4.42-11.26.11-279.05.1-558.11.07-837.16,0-2.74-.34-5.48-.53-8.22,58,0,116,0,174,0,6.61,11.1,13.25,22.17,19.81,33.3,50.42,85.44,95.33,173.77,137.61,263.46,57.39,121.73,109.67,245.66,158.81,370.92,63.63,162.19,121.83,326.32,175.24,492.15,34.39,106.78,66.68,214.19,96.44,322.35,18.79,68.31,36.52,136.89,52.93,205.81,13.42,56.36,26.04,112.9,37.07,169.77,6.36,32.78,12.32,65.65,17.88,98.58,6.47,38.4,11.95,76.96,16.05,115.7,2.97,28.09,6.01,56.16,6.47,84.44.04,2.68.62,5.36.95,8.04v35.47h-186.19Z" />
    <path id="L_Wing" data-name="L Wing"
      d="m894.37,0c-.06,2.58-.18,5.16-.18,7.75,0,279.05-.02,558.11.07,837.16,0,4.5-1.03,7.91-4.2,11.33-57.36,61.8-109.89,127.54-159.06,196-68.36,95.2-129.63,194.83-186.07,297.49-27.83,50.63-54.39,101.92-79.87,153.77-46.65,94.93-89.57,191.53-129.56,289.45-41.51,101.65-79.88,204.48-115.4,308.37-10.98,32.12-21.58,64.37-32.34,96.56-.23.69-.32,1.42-.48,2.14H0c0-10.4,0-20.71,0-31.03.56-3.56,1.36-7.11,1.62-10.69,1.46-19.69,2.43-39.43,4.23-59.09,3.74-40.81,9.14-81.43,15.48-121.92,8.25-52.7,18-105.13,28.87-157.34,16.92-81.3,36.12-162.06,56.97-242.45,24.36-93.95,50.84-187.3,78.95-280.19,34.3-113.39,71.07-225.97,110.13-337.8,44.48-127.36,91.79-253.67,142.75-378.58,56.91-139.5,117.71-277.23,186.73-411.23,28.66-55.65,58.85-110.45,91.54-163.85,1.15-1.87,2.08-3.87,3.11-5.81,58,0,116,0,174,0Z" />
  </g>
</svg>