<?xml version="1.0" encoding="UTF-8"?>
<svg id="Layer_2" data-name="Layer 2" xmlns="http://www.w3.org/2000/svg" viewBox="0 0 2200.62 2199.73">
  <g id="Credits">
    <path id="Symbol" d="m1651.25,1006.64v173.98h-13.29c-134.92,0-269.84-.1-404.76.1-23.34.03-25.5,3.53-25.41,24.92.09,24.16-.55,48.34.18,72.48.7,23.19,5.51,23.06,22.76,23.04,140.49-.16,280.99-.09,421.48-.09h14.19v191.49h-463.05v223.77c0,17.5-11.26,28.6-28.98,28.61-18.96.02-37.91,0-56.87,0s-30.1-11.77-30.11-30.02c-.03-69.51-.01-139.02-.01-208.53v-13.5h-13.61c-113.36,0-226.72-.03-340.08.02-34.89.02-66.84-10.94-96.46-27.98-38.76-22.3-67.69-54.59-86.31-95.23-11.56-25.23-18.9-51.93-18.9-80.12,0-128.61-.11-257.22.05-385.83.06-50.93,17.94-95.27,50.59-134.1,35.15-41.79,79.82-65.85,133.73-73.12,6.87-.93,13.8-2.07,20.71-2.08,112.62-.13,225.24-.09,337.85-.09h14.65v-186.42c0-20.56,11.42-32.15,31.65-32.17,18.21-.01,36.42-.05,54.64.01,17.45.06,29.66,12.2,29.68,29.63.04,62.42.02,124.85.02,188.43h460.95v194.57h-431.26c-20.56,0-25.23,4.69-25.23,25.23,0,24.16-.06,48.32.02,72.48.05,16.88,3.81,20.5,20.86,20.5h420.33v.02Zm-725.89,0c47.55,0,95.1.01,142.65,0,15.42,0,19.33-4.01,19.35-19.7.02-26.01,0-52.01,0-78.02,0-19.72-3.03-22.72-23.11-22.72h-271.93c-3.34,0-6.71-.23-10.03.05-14.62,1.26-18.26,5.1-18.31,19.73-.1,26.75-.98,53.54.31,80.23.87,17.98,2.98,20.57,20.64,20.5,46.81-.2,93.61-.07,140.42-.07h.01Zm.61,294.43h143.81c13.36,0,17.52-4.15,17.56-17.82.08-26.01.02-52.03.02-78.04,0-19.18-3.14-22.34-22.38-22.34-63.55-.01-127.09,0-190.64,0-29.73,0-59.46-.12-89.19.05-15.45.09-21.18,6.08-21.19,21.4-.03,25.27-.05,50.54,0,75.81.04,17.19,3.75,20.95,20.41,20.95h141.6Z"/>
    <path id="Ring" d="m1082.86.09c615.85-7.81,1085.29,473.08,1115.88,1033.99,16.56,303.69-75.84,572.53-278.66,799.21-203.13,227.03-460.4,351.65-764.64,365.24C501.54,2227.75,25.85,1717.74,1.13,1154.12-27.33,505.2,487.57,6.97,1082.86.09Zm18.35,2031.43c510.64-1.05,942.12-415.6,930.14-954.9-10.98-493.9-410.2-905.72-928.75-907.44-272.06-.9-504.07,101.29-688.28,302.16-175.8,191.71-255.66,420.2-243.37,680.39,22.05,466.89,410.77,877.78,930.27,879.79h-.01Z"/>
  </g>
</svg>