<?xml version="1.0" encoding="UTF-8"?>
<svg id="N7-Logo" data-name="N7-Logo" xmlns="http://www.w3.org/2000/svg" height="32" viewBox="0 0 1024 332.8">
  <polygon id="Detail" points="1024 0 1024 332.8 698.02 332.8 959.7 69.28 959.7 0 1024 0"/>
  <g id="N7">
    <polygon id="_7" data-name="7" points="902.98 0 902.98 78.37 655.14 332.8 508.21 332.8 769.12 78.37 487.25 78.37 487.25 0 902.98 0"/>
    <path id="N" d="m462.84,0v332.8h-94.75s-33.76-1.82-55.54-13.49c-35.35-18.86-43.33-31.67-43.33-31.67L105.68,95.41c-6.22-7.04-20.6-6.81-20.6-6.81v244.2H0V0h85.76s30.63.54,41.11,4.18c14.83,5.09,40.48,30.76,40.48,30.76l129.1,147.11s24.82,28.89,33.94,37.71c16.88,16.36,37.16,14.81,37.16,14.81V0h95.29Z"/>
  </g>
</svg>