<?xml version="1.0" encoding="UTF-8"?>
<svg id="Layer_2" data-name="Layer 2" xmlns="http://www.w3.org/2000/svg" viewBox="0 0 2200.63 2199.73">
  <g id="Paragon">
    <path id="Ring" d="m1082.86.09c615.85-7.81,1085.29,473.08,1115.88,1033.99,16.56,303.69-75.84,572.53-278.66,799.21-203.13,227.03-460.4,351.65-764.64,365.24C501.54,2227.75,25.85,1717.74,1.13,1154.12-27.33,505.2,487.57,6.97,1082.86.09Zm18.35,2031.43c510.64-1.05,942.12-415.6,930.14-954.9-10.98-493.9-410.2-905.72-928.75-907.44-272.06-.9-504.07,101.29-688.28,302.16-175.8,191.71-255.66,420.2-243.37,680.39,22.05,466.89,410.77,877.78,930.27,879.79Z"/>
    <g id="Wings">
      <path id="Lower_Wing" data-name="Lower Wing" d="m640.76,1086.89c107.94,194.26,333.16,329.31,489.33,382.78-.97-19.43-1.37-38.15-3.32-56.71-.35-3.33-6.71-6.78-10.95-8.82-48.99-23.6-99.27-44.8-146.93-70.82-79.27-43.28-151.37-96.82-213.04-163.39-69.17-74.67-117.65-160.25-135.4-261.52-7.25-41.38-6.31-83.13-3.19-124.85.3-3.98,1.47-7.89,2.36-12.47,11.7,26,21.89,51.31,34.22,75.53,37,72.66,88.36,134.14,147.87,189.52,63.22,58.83,134.32,106.19,210.13,146.53,37.55,19.98,77.1,36.2,115.79,54.02,2.55,1.17,5.47,1.55,9.88,2.76.67-14.89,2.2-28.7,1.32-42.35-.25-3.88-6.93-8.63-11.66-10.75-54.41-24.42-106.38-53.23-156.09-86.08-65.72-43.43-126.64-92.71-179.82-151.07-77.16-84.7-132.57-180.56-151.01-295.36-13.31-82.88-4.64-163.96,19.07-243.9.9-3.04,2.56-5.86,5.39-12.17,2.82,12.15,4.92,20.89,6.88,29.67,15.55,69.49,43.33,134.11,81.25,193.97,24.76,39.1,51.75,77,80.3,113.44,41.74,53.28,90.73,99.75,143.2,142.51,78.8,64.22,163.76,118.98,254.11,165.43,18.38,9.45,36.96,18.58,55.86,26.93,10.75,4.75,12.22,10.49,9.04,21.65-14.8,51.88-31.14,103.53-41.89,156.29-12.97,63.71-15.65,128.54-11.49,193.84,5.4,84.58,23.12,166.03,53.8,244.83,2.94,7.54,2.64,13.31-4.32,18.89-94.09,75.45-188.02,151.09-282.02,226.65-1.28,1.03-2.82,1.72-6.85,4.14-1.97-8.1-4.02-15.01-5.29-22.07-4.11-22.83-7.44-45.81-12.08-68.53-1.9-9.29-.29-15.81,6.36-22.69,36.94-38.21,73.5-76.79,110.1-115.32,8.09-8.51,15.81-17.37,24.06-26.46-19.31-10.66-38.02-20.91-56.66-31.29-65.08-36.24-126.17-78.36-182.66-126.84-57.5-49.34-109.75-103.7-151.97-167.06-44.79-67.24-76.37-139.86-88.85-220.08-2.51-16.11-3.25-32.5-4.81-48.76Z"/>
      <path id="Upper_Wing" data-name="Upper Wing" d="m818.39,306.16c11.96,27.9,21.58,54.07,34.14,78.75,18.14,35.63,37.05,71.02,58.07,105.01,39.43,63.76,87.44,120.87,141.85,172.41,60.01,56.84,125.81,106.31,199.34,144.02,49.4,25.33,101.72,44.89,152.01,68.56,23.14,10.89,45.67,23.89,66.51,38.7,47.96,34.09,90.69,74.1,126.24,121.27,18.62,24.71,35.18,50.66,41.96,81.48,2.36,10.72,3.25,21.53-5.45,31.97-6.57-4.88-12.43-9.53-18.59-13.73-6.61-4.5-13.2-9.21-20.34-12.71-28.57-14-43.01-11.41-66.09,10.28-62.96,59.19-80.84,132.68-69.57,215.88,7.42,54.8,27.87,104.97,53.27,153.36,5.25,10,4.74,16.18-3.92,23.6-47.02,40.35-93.65,81.16-140.44,121.78-12.62,10.96-25.32,21.84-39.77,34.3-4.52-9.12-8.86-16.23-11.71-23.89-21.02-56.45-33.89-114.65-39.08-174.77-11.76-136.04,10.71-267.16,55.58-395.09,4.57-13.02,2.52-21.88-7.91-29.76-25.91-19.58-51.46-39.65-77.75-58.69-89.31-64.68-176.09-132.42-251.66-213.15-53.24-56.87-99.66-118.98-134.12-189.29-38.71-79-55.38-162.47-49.46-250.31.68-10.06,2.52-20.05,4.02-30.05.41-2.73,1.52-5.36,2.86-9.94Z"/>
    </g>
  </g>
</svg>