<?xml version="1.0" encoding="UTF-8"?>
<svg id="Normandy" data-name="Normandy" xmlns="http://www.w3.org/2000/svg"
  viewBox="0 0 2191.74 172.8">
  <g id="NormandyWord">
    <path id="nStart"
      d="m67.82,53.14c-3.02-3.6-6.73-6.66-11.12-9.18-4.39-2.52-8.89-3.78-13.5-3.78h-2.16v132.62H0V0h43.2c11.52,0,21.2,1.87,29.05,5.62,7.85,3.75,15.37,9.65,22.57,17.71l83.59,96.34c3.02,3.46,6.7,6.48,11.02,9.07s8.78,3.89,13.39,3.89h2.16V0h41.26v172.8h-43.42c-11.95,0-22.07-1.94-30.35-5.83-8.28-3.89-15.95-10.08-23-18.58L67.82,53.14Z" />
    <path id="o"
      d="m332.85,172.8c-43.35,0-65.02-18.29-65.02-54.86v-62.86c0-36.72,21.67-55.08,65.02-55.08h133.49c43.34,0,65.02,18.36,65.02,55.08v62.86c0,36.58-21.67,54.86-65.02,54.86h-133.49Zm0-132.62c-15.12,0-22.68,4.97-22.68,14.9v62.86c0,9.79,7.56,14.69,22.68,14.69h133.49c15.12,0,22.68-4.89,22.68-14.69v-62.86c0-9.94-7.56-14.9-22.68-14.9h-133.49Z" />
    <path id="r"
      d="m552.96,0h208.01c33.26,0,49.9,14.04,49.9,42.13v15.55c0,29.24-16.63,43.85-49.9,43.85h-14.47l71.5,71.27h-58.32l-67.1-69.12h-97.28v69.12h-42.34V0Zm42.34,40.18v27.65h166.98c5.61,0,8.41-2.32,8.41-6.97v-13.93c0-4.5-3.24-6.75-9.71-6.75h-165.69Z" />
    <path id="m"
      d="m828.79,0h42.12c6.91,0,13.07.58,18.47,1.73,5.4,1.15,10.26,3.06,14.58,5.72,4.32,2.67,8.24,6.09,11.77,10.26,3.53,4.18,6.8,9.29,9.83,15.34l50.54,99.58h13.82l50.11-98.93c3.17-6.19,6.55-11.41,10.15-15.66,3.6-4.25,7.59-7.7,11.99-10.37,4.39-2.66,9.21-4.61,14.47-5.83,5.25-1.22,11.05-1.84,17.39-1.84h42.55v172.8h-40.18V40.18h-2.16c-2.88,0-5.65,1.05-8.32,3.13-2.67,2.09-4.64,4.43-5.94,7.02l-63.29,122.47h-67.61l-63.5-122.47c-1.3-2.59-3.31-4.93-6.05-7.02-2.74-2.09-5.55-3.13-8.42-3.13h-2.16v132.62h-40.18V0Z" />
    <path id="a"
      d="m1355.39,138.89h-140.18l-19.01,33.91h-48.82l90.5-158.11c1.3-2.45,2.63-4.57,4-6.37,1.37-1.8,2.99-3.31,4.86-4.54,1.87-1.22,4.1-2.16,6.7-2.81,2.59-.65,5.83-.97,9.72-.97h43.63c11.95,0,20.74,4.83,26.35,14.47l90.29,158.33h-48.6l-19.44-33.91Zm-119.66-38.02h98.93l-30.02-52.7c-1.59-2.88-3.35-4.93-5.29-6.16-1.94-1.22-3.92-1.84-5.94-1.84h-16.63c-4.61,0-8.42,2.74-11.45,8.21l-29.59,52.49Z" />
    <path id="n"
      d="m1502.06,53.14c-3.02-3.6-6.73-6.66-11.12-9.18-4.39-2.52-8.89-3.78-13.5-3.78h-2.16v132.62h-41.04V0h43.2c11.52,0,21.2,1.87,29.05,5.62,7.85,3.75,15.37,9.65,22.57,17.71l83.59,96.34c3.02,3.46,6.7,6.48,11.02,9.07,4.32,2.59,8.78,3.89,13.39,3.89h2.16V0h41.26v172.8h-43.42c-11.95,0-22.07-1.94-30.35-5.83-8.28-3.89-15.95-10.08-23-18.58l-81.65-95.26Z" />
    <path id="d"
      d="m1702.07,0h201.96c43.34,0,65.02,18.36,65.02,55.08v62.86c0,36.58-21.67,54.86-65.02,54.86h-201.96V0Zm42.34,132.62h159.65c15.1,0,22.65-4.89,22.65-14.69v-62.86c0-9.94-7.55-14.9-22.65-14.9h-159.65v92.45Z" />
    <path id="y"
      d="m2143.14,0h48.6l-91.8,114.26v58.54h-42.34v-57.67L1964.08,0h48.82l64.58,82.3L2143.14,0Z" />
  </g>
</svg>