<?xml version="1.0" encoding="UTF-8"?>
<svg id="NormandyLetterAContainer" data-name="NormandyLetterA" stroke="#000000" stroke-width="0"
  xmlns="http://www.w3.org/2000/svg" viewBox="0 0 276.05 172.8">
  <g id="NormandyLetterAGroup">
    <path id="NormandyLetterA"
      d="m208.01,138.89H67.82l-19.01,33.91H0L90.5,14.69c1.3-2.45,2.63-4.57,4-6.37,1.37-1.8,2.99-3.31,4.86-4.54,1.87-1.22,4.1-2.16,6.7-2.81,2.59-.65,5.83-.97,9.72-.97h43.63c11.95,0,20.74,4.83,26.35,14.47l90.29,158.33h-48.6l-19.44-33.91Zm-119.66-38.02h98.93l-30.02-52.7c-1.59-2.88-3.35-4.93-5.29-6.16-1.94-1.22-3.92-1.84-5.94-1.84h-16.63c-4.61,0-8.42,2.74-11.45,8.21l-29.59,52.49Z" />
  </g>
</svg>