<?xml version="1.0" encoding="UTF-8"?>
<svg id="Cerberus" data-name="Cerberus" xmlns="http://www.w3.org/2000/svg"
  viewBox="0 0 1282.74 2200">
  <path id="Shield"
    d="m643.38,0c1.49,1.85,2.79,3.89,4.49,5.51,91.83,87.81,183.69,175.59,275.54,263.38,40.93,39.12,81.82,78.29,122.86,117.28,3.55,3.37,4.94,6.7,4.94,11.58-.11,396.21-.11,792.41,0,1188.62,0,4.77-1.34,8.42-4.2,12.16-120.72,158.28-241.35,316.62-362,474.95-1.34,1.76-2.75,3.46-4.78,6.02-.38-2.3-.69-3.66-.81-5.05-.11-1.33-.03-2.67-.03-4.01,0-180.38.03-360.76-.12-541.13,0-5.61,1.61-9.41,5.68-13.27,58.55-55.52,116.91-111.26,175.46-166.78,4.38-4.15,6.27-8.23,6.27-14.39-.17-236.34-.17-472.68,0-709.02,0-6.18-1.92-10.13-6.45-14.21-71.07-63.99-141.97-128.18-212.92-192.31-1.48-1.34-3-2.64-4.84-4.24-1.42,1.06-2.89,1.98-4.16,3.12-72.11,65.17-144.18,130.39-216.39,195.45-3.65,3.29-4.25,6.76-4.25,11.17.06,190.19.05,380.38.05,570.56,0,46.82.07,93.65-.1,140.47-.02,5.05,1.35,8.63,5.09,12.18,59.18,56.16,118.19,112.5,177.35,168.67,3.53,3.35,5.01,6.65,5.01,11.55-.12,181.05-.1,362.09-.12,543.14,0,2.33-.2,4.66-.38,8.48-2.47-3.02-4.01-4.8-5.43-6.67-120.52-158.15-241.01-316.32-361.61-474.41-3.03-3.97-4.23-7.91-4.23-12.84.08-395.98.08-791.97-.02-1187.95,0-5.06,1.39-8.62,5.12-12.18C371.48,258.89,504.42,131.82,637.36,4.76c1.61-1.54,3.12-3.17,4.67-4.76.45,0,.89,0,1.34,0Z" />
  <g id="Wings">
    <path id="L_Wing" data-name="L Wing"
      d="m0,612.75c2.1-1.61,4.37-3.04,6.27-4.86,53.85-51.41,107.66-102.86,161.48-154.3,1.59-1.52,3.24-2.99,5.51-5.07.31,2.08.63,3.46.71,4.85.1,2,.03,4.01.03,6.02,0,396.87.01,793.74-.11,1190.61,0,6.33,1.61,11.42,5.19,16.62,52.65,76.59,105.11,153.32,157.72,229.94,3.03,4.41,4.51,8.71,4.5,14.16-.15,93.42-.11,186.84-.11,280.26,0,2.38,0,4.76,0,7.15-.43.18-.86.36-1.29.54-1.47-2.05-2.97-4.08-4.39-6.16-69.41-101.31-138.82-202.63-208.22-303.95-40.68-59.39-81.35-118.8-122.08-178.17-1.48-2.16-3.47-3.97-5.22-5.94,0-363.9,0-727.8,0-1091.7Z" />
    <path id="R_Wing" data-name="R Wing"
      d="m1282.74,1705.79c-1.58,2.07-3.26,4.06-4.73,6.21-109.96,160.51-219.91,321.04-329.86,481.56-1.21,1.76-2.55,3.43-4.8,6.45-.18-3.02-.34-4.46-.34-5.89-.01-95.2.01-190.4-.1-285.59,0-4.11,1.46-7.2,3.64-10.39,53.06-77.39,106.03-154.83,159.19-232.15,3.34-4.86,4.66-9.62,4.66-15.45-.1-397.51-.09-795.03-.09-1192.54v-9.61c2.13,1.65,3.36,2.43,4.4,3.42,54.8,52.34,109.59,104.7,164.36,157.07,1.29,1.23,2.45,2.58,3.67,3.88,0,364.35,0,728.69,0,1093.04Z" />
  </g>
</svg>