<?xml version="1.0" encoding="UTF-8"?>
<svg id="Layer_2" data-name="Layer 2" xmlns="http://www.w3.org/2000/svg" viewBox="0 0 98.46 32">
  <g id="N7-Logo">
    <polygon id="Detail" points="98.46 0 98.46 32 67.12 32 92.28 6.66 92.28 0 98.46 0"/>
    <g id="N7">
      <polygon id="_7" data-name=" 7" points="86.82 0 86.82 7.54 62.99 32 48.87 32 73.95 7.54 46.85 7.54 46.85 0 86.82 0"/>
      <path id="N" d="m44.5,0v32h-9.11s-3.25-.18-5.34-1.3c-3.4-1.81-4.17-3.05-4.17-3.05L10.16,9.17c-.6-.68-1.98-.65-1.98-.65v23.48H0V0h8.25s2.95.05,3.95.4c1.43.49,3.89,2.96,3.89,2.96l12.41,14.15s2.39,2.78,3.26,3.63c1.62,1.57,3.57,1.42,3.57,1.42V0s9.16,0,9.16,0Z"/>
    </g>
  </g>
</svg>