<?xml version="1.0" encoding="UTF-8"?>
<svg id="NormandyLetterOContainer" data-name="NormandyLetterO" stroke="#000000" stroke-width="0"
  xmlns="http://www.w3.org/2000/svg" viewBox="0 0 263.52 172.8">
  <g id="NormandyLetterOGroup">
    <path id="NormandyLetterO"
      d="m65.02,172.8C21.67,172.8,0,154.51,0,117.94v-62.86C0,18.36,21.67,0,65.02,0h133.49c43.34,0,65.02,18.36,65.02,55.08v62.86c0,36.58-21.67,54.86-65.02,54.86H65.02Zm0-132.62c-15.12,0-22.68,4.97-22.68,14.9v62.86c0,9.79,7.56,14.69,22.68,14.69h133.49c15.12,0,22.68-4.89,22.68-14.69v-62.86c0-9.94-7.56-14.9-22.68-14.9H65.02Z" />
  </g>
</svg>