<?xml version="1.0" encoding="UTF-8"?>
<svg id="NormandyLetterMContainer" data-name="NormandyLetterM" stroke="#000000" stroke-width="0"
  xmlns="http://www.w3.org/2000/svg" viewBox="0 0 307.8 172.8">
  <g id="NormandyLetterMGroup" data-name="Layer 1">
    <path id="NormandyLetterM"
      d="m0,0h42.12c6.91,0,13.07.58,18.47,1.73,5.4,1.15,10.26,3.06,14.58,5.72,4.32,2.67,8.24,6.09,11.77,10.26,3.53,4.18,6.8,9.29,9.83,15.34l50.54,99.58h13.82l50.11-98.93c3.17-6.19,6.55-11.41,10.15-15.66,3.6-4.25,7.59-7.7,11.99-10.37,4.39-2.66,9.21-4.61,14.47-5.83,5.25-1.22,11.05-1.84,17.39-1.84h42.55v172.8h-40.18V40.18h-2.16c-2.88,0-5.65,1.05-8.32,3.13-2.67,2.09-4.64,4.43-5.94,7.02l-63.29,122.47h-67.61L56.81,50.33c-1.3-2.59-3.31-4.93-6.05-7.02-2.74-2.09-5.55-3.13-8.42-3.13h-2.16v132.62H0V0Z" />
  </g>
</svg>