<?xml version="1.0" encoding="UTF-8"?>
<svg id="Layer_2" data-name="Layer 2" xmlns="http://www.w3.org/2000/svg" viewBox="0 0 2200.63 2199.73">
  <g id="Renegade">
    <path id="Ring" d="m1082.86.09c615.85-7.81,1085.29,473.08,1115.88,1033.99,16.56,303.69-75.84,572.53-278.66,799.21-203.13,227.03-460.4,351.65-764.64,365.24C501.54,2227.75,25.85,1717.74,1.13,1154.12-27.33,505.2,487.57,6.97,1082.86.09Zm18.35,2031.43c510.64-1.05,942.12-415.6,930.14-954.9-10.98-493.9-410.2-905.72-928.75-907.44-272.06-.9-504.07,101.29-688.28,302.16-175.8,191.71-255.66,420.2-243.37,680.39,22.05,466.89,410.77,877.78,930.27,879.79Z"/>
    <g id="Star">
      <path id="Star_Legs" data-name="Star Legs" d="m1100.81,1440.51c-158.88,121.32-316.93,242.01-477.56,364.66,10.38-34.4,19.8-65.73,29.28-97.04,9.08-30.01,17.9-60.11,27.61-89.91,1.99-6.12,6.29-12.56,11.37-16.45,133.61-102.4,267.49-204.44,401.17-306.75,5.97-4.57,9.78-4.99,15.99-.23,133.96,102.57,268.13,204.88,402.1,307.45,4.28,3.28,8.36,8.37,9.92,13.43,18.89,61.01,37.29,122.16,55.8,183.29.3,1.01.35,2.09.89,5.47-159.55-121.83-317.53-242.46-476.57-363.9Z"/>
      <path id="Star_Ribs" data-name="Star Ribs" d="m1465.59,1440.11c-122.56-93.58-243.32-185.79-364.78-278.53-120.95,92.35-241.96,184.74-365.36,278.96.92-5.33,1.1-8.07,1.88-10.63,17.82-58.91,35.58-117.85,53.78-176.64,1.59-5.13,5.26-10.52,9.51-13.78,92.32-70.84,184.84-141.42,277.37-211.98,7.59-5.79,15.47-15.17,23.41-15.37,7.27-.18,14.87,9.72,22.21,15.32,92.51,70.59,185.02,141.18,277.39,211.95,3.76,2.88,7.53,7.18,8.89,11.57,18.81,60.63,37.21,121.39,55.65,182.14.42,1.38.05,2.99.05,6.99Z"/>
      <path id="Star_Crown" data-name="Star Crown" d="m1850.8,864.6c-57.99,47.2-113.01,92.01-168.05,136.8-64.71,52.65-129.57,105.12-193.98,158.12-8.08,6.65-13.08,7.01-21.66.73-118.23-86.73-236.86-172.93-355.05-259.72-9-6.61-14.41-5.84-22.85.35-118.26,86.7-236.85,172.95-355.1,259.66-8.13,5.96-12.98,5.71-20.71-.61-118.07-96.5-236.42-192.65-354.71-288.89-1.75-1.42-3.41-2.95-7.41-6.43h14.73c178.13,0,356.25-.09,534.38.22,10.76.02,16-2.54,19.87-13.52,57.88-163.92,116.35-327.62,174.7-491.37,1.42-4,3.09-7.91,5.69-14.54,2.64,6.36,4.62,10.61,6.18,15,58.35,163.75,116.79,327.47,174.7,491.37,3.69,10.45,8.53,13.09,19.04,13.07,178.13-.33,356.25-.24,534.38-.24h15.85Z"/>
    </g>
  </g>
</svg>