<?xml version="1.0" encoding="UTF-8"?>
<svg id="NormandyLetterNContainer" data-name="NormandyLetterN" fill="#ffffff" stroke="#000000" stroke-width="2px"
  xmlns="http://www.w3.org/2000/svg" viewBox="0 0 246.24 172.8">
  <g id="NormandyLetterNGroup">
    <path id="NormandyLetterN"
      d="m67.82,53.14c-3.02-3.6-6.73-6.66-11.12-9.18-4.39-2.52-8.89-3.78-13.5-3.78h-2.16v132.62H0V0h43.2c11.52,0,21.2,1.87,29.05,5.62,7.85,3.75,15.37,9.65,22.57,17.71l83.59,96.34c3.02,3.46,6.7,6.48,11.02,9.07,4.32,2.59,8.78,3.89,13.39,3.89h2.16V0h41.26v172.8h-43.42c-11.95,0-22.07-1.94-30.35-5.83-8.28-3.89-15.95-10.08-23-18.58L67.82,53.14Z" />
  </g>
</svg>